<svg width="1522" height="294" viewBox="0 0 1522 294" fill="none" xmlns="http://www.w3.org/2000/svg">
<path d="M0.960938 127.001L308.461 0.000976562V78.501L84.9609 162.001L174.961 214.001L52.4609 162.001L296.961 69.501V20.501L0.960938 141.501V127.001Z" fill="#E0E0D4"/>
<path d="M1.04297 147.638L274.043 46.1382V59.1382L28.543 160.138L247.043 253.638V221.138L151.543 160.138L165.543 160.138L283.543 211.638L283.543 293.638L1.04297 181.638V147.638Z" fill="#0DED68"/>
<path d="M615.5 166.637L308 293.637V215.137L531.5 131.637L441.5 79.6372L564 131.637L319.5 224.137V273.137L615.5 152.137V166.637Z" fill="#E0E0D4"/>
<path d="M615.418 146L342.418 247.5V234.5L587.918 133.5L369.418 40V72.5L464.918 133.5H450.918L332.918 82V0L615.418 112V146Z" fill="#0DED68"/>
<rect x="269" y="109" width="78" height="78" rx="39" fill="#0DDA60"/>
<path d="M317 148C317 154.5 317 168 308 187C299 168 299 155.5 299 148C299 139.474 299 127 308 109C317 127.5 317 140 317 148Z" fill="#242223"/>
<path d="M686 269V92.34H731.605V269H686ZM686 27H731.605V73.6714H686V27Z" fill="#E0E0D4"/>
<path d="M827.574 27V269H781.969V27H827.574Z" fill="#E0E0D4"/>
<path d="M877.937 269V92.34H923.542V269H877.937ZM877.937 27H923.542V73.6714H877.937V27Z" fill="#E0E0D4"/>
<path d="M991.181 92.34H1067.53V128.64H1013.64L1046.46 177.386C1061.2 198.359 1069.38 212.764 1070.99 220.6C1071.91 224.288 1072.37 228.09 1072.37 232.009C1072.37 248.372 1066.27 260.703 1054.06 269H965.96V232.7H1029.18L992.217 178.423C990.605 175.888 988.071 172.315 984.616 167.706C981.392 163.096 978.858 159.409 977.015 156.643C975.173 153.647 973.906 151.457 973.215 150.074C972.524 148.691 971.603 146.963 970.451 144.889C969.299 142.584 968.493 140.625 968.033 139.011C967.111 134.632 966.651 131.06 966.651 128.294C966.651 111.47 974.827 99.4848 991.181 92.34Z" fill="#E0E0D4"/>
<path d="M1173.2 269H1136.92C1126.79 256.093 1119.88 243.187 1116.19 230.28C1112.51 217.373 1110.67 201.24 1110.67 181.88V92.34H1156.62V185.337C1156.62 206.31 1160.76 222.098 1169.06 232.7H1201.19V92.34H1247.14V269H1210.86L1204.64 256.554C1195.89 264.851 1185.41 269 1173.2 269Z" fill="#E0E0D4"/>
<path d="M1380.69 189.14H1343.72C1338.89 195.132 1336.47 202.623 1336.47 211.611C1336.47 220.6 1339 227.63 1344.07 232.7H1380.69V189.14ZM1306.41 92.34H1392.09C1405.91 100.637 1415.01 110.202 1419.39 121.034C1423.76 131.636 1425.95 146.156 1425.95 164.594V216.451C1425.95 235.581 1426.41 253.097 1427.33 269H1387.95L1381.73 256.554C1372.74 264.851 1360.08 269 1343.72 269H1321.96C1302.38 256.093 1292.59 237.54 1292.59 213.34C1292.59 188.91 1302.61 169.665 1322.65 155.606H1355.12C1364.11 155.606 1372.51 158.371 1380.35 163.903V146.617C1380.35 137.629 1376.43 131.636 1368.6 128.64H1306.41V92.34Z" fill="#E0E0D4"/>
<path d="M1522 27V269H1476.4V27H1522Z" fill="#E0E0D4"/>
<path d="M728.625 94.375L686 171.375V94.375H728.625Z" fill="#0DED68"/>
<path d="M923.875 218.125L879.875 269H923.875V218.125Z" fill="#0DED68"/>
<path d="M1110.88 197.5L1154.88 93.0001L1110.88 93V197.5Z" fill="#0DED68"/>
<path d="M1522 28.3755L1476.62 269H1522V28.3755Z" fill="#0DED68"/>
</svg>
