<svg width="616" height="294" viewBox="0 0 616 294" fill="none" xmlns="http://www.w3.org/2000/svg">
<path d="M0.960938 127.001L308.461 0.000976562V78.501L84.9609 162.001L174.961 214.001L52.4609 162.001L296.961 69.501V20.501L0.960938 141.501V127.001Z" fill="#E0E0D4"/>
<path d="M1.04297 147.638L274.043 46.1382V59.1382L28.543 160.138L247.043 253.638V221.138L151.543 160.138L165.543 160.138L283.543 211.638L283.543 293.638L1.04297 181.638V147.638Z" fill="#0DED68"/>
<path d="M615.5 166.637L308 293.637V215.137L531.5 131.637L441.5 79.6372L564 131.637L319.5 224.137V273.137L615.5 152.137V166.637Z" fill="#E0E0D4"/>
<path d="M615.418 146L342.418 247.5V234.5L587.918 133.5L369.418 40V72.5L464.918 133.5H450.918L332.918 82V0L615.418 112V146Z" fill="#0DED68"/>
<rect x="269" y="109" width="78" height="78" rx="39" fill="#0DDA60"/>
<path d="M317 148C317 154.5 317 168 308 187C299 168 299 155.5 299 148C299 139.474 299 127 308 109C317 127.5 317 140 317 148Z" fill="#242223"/>
</svg>
